<?xml version="1.0" standalone="no"?>
<!DOCTYPE svg PUBLIC "-//W3C//DTD SVG 20010904//EN"
 "http://www.w3.org/TR/2001/REC-SVG-20010904/DTD/svg10.dtd">
<svg version="1.0" xmlns="http://www.w3.org/2000/svg"
 width="270.000000pt" height="270.000000pt" viewBox="0 0 270.000000 270.000000"
 preserveAspectRatio="xMidYMid meet">
<metadata>
Created by potrace 1.16, written by Peter Selinger 2001-2019
</metadata>
<g transform="translate(0.000000,270.000000) scale(0.100000,-0.100000)"
fill="#000000" stroke="none">
<path d="M1415 2671 c-3 -2 29 -41 70 -86 41 -45 75 -87 75 -93 0 -5 -31 -41
-70 -78 -38 -37 -70 -71 -70 -76 0 -4 10 -8 22 -8 38 0 141 -22 218 -47 245
-79 450 -255 566 -485 71 -140 87 -196 104 -358 13 -122 0 -244 -38 -367 -13
-44 -14 -59 -3 -100 7 -26 16 -66 21 -88 24 -111 24 -110 56 -108 16 0 56 9
89 18 33 9 71 19 85 22 27 7 49 30 50 51 0 8 6 28 14 45 15 35 26 75 52 182
25 100 25 421 0 520 -39 162 -49 191 -107 310 -82 168 -132 239 -258 366 -112
113 -291 232 -436 291 -75 30 -96 36 -215 64 -65 16 -218 33 -225 25z"/>
<path d="M1105 2654 c-157 -38 -212 -57 -325 -112 -251 -120 -471 -334 -593
-577 -43 -86 -61 -128 -77 -180 -7 -22 -16 -49 -20 -60 -5 -11 -16 -54 -26
-95 -22 -94 -26 -432 -5 -520 16 -68 40 -155 54 -195 10 -29 14 -41 53 -133
19 -45 37 -50 42 -11 2 13 7 33 11 44 5 11 17 48 27 83 9 35 21 65 25 68 8 4
37 -4 157 -42 23 -8 45 -14 47 -14 11 0 4 29 -17 71 -24 49 -30 73 -59 209
-30 136 -22 274 24 445 14 53 80 194 122 258 77 122 233 261 370 332 55 28
194 77 255 90 14 3 67 45 118 94 l93 89 -82 86 c-90 95 -90 95 -194 70z"/>
<path d="M1735 1819 c-82 -60 -165 -122 -184 -137 -19 -15 -39 -29 -45 -31 -6
-2 -13 -7 -16 -10 -3 -3 -15 -14 -27 -25 -22 -18 -23 -18 -55 15 -18 19 -51
57 -73 84 -79 99 -62 97 -162 19 -48 -38 -99 -77 -113 -86 -25 -18 -186 -139
-205 -155 -5 -5 -37 -29 -70 -53 -33 -24 -62 -46 -65 -49 -3 -4 -23 -19 -45
-35 -22 -16 -42 -31 -43 -32 -4 -3 47 -76 78 -112 l20 -24 49 39 c64 49 74 57
274 207 93 69 176 126 185 126 10 0 27 -15 39 -33 12 -17 42 -53 66 -79 65
-71 75 -68 247 58 80 58 161 116 180 128 19 13 49 35 65 50 17 14 33 26 36 26
8 0 120 88 121 95 1 13 -86 125 -96 124 -6 0 -78 -50 -161 -110z"/>
<path d="M1714 1515 c-3 -6 -3 -158 -2 -338 l3 -329 88 1 c48 0 94 0 102 1 13
0 15 44 15 335 0 184 -3 335 -7 336 -64 6 -196 2 -199 -6z"/>
<path d="M1120 1326 c-3 -2 -4 -112 -2 -243 l3 -238 92 2 c51 1 95 2 100 2 4
1 6 108 5 239 l-3 237 -95 3 c-53 1 -98 1 -100 -2z"/>
<path d="M1420 1268 c0 -7 -1 -105 -1 -217 l-1 -204 89 1 c48 1 94 1 101 2 9
0 12 49 12 209 0 181 -2 210 -16 215 -9 3 -54 6 -100 6 -60 0 -84 -4 -84 -12z"/>
<path d="M818 990 c-2 -77 -1 -140 2 -140 48 -4 179 -2 186 3 5 3 8 66 6 141
l-3 136 -94 0 -94 0 -3 -140z"/>
<path d="M2145 778 c-80 -121 -225 -236 -415 -328 -8 -4 -42 -14 -75 -24 -33
-9 -73 -22 -90 -27 -47 -16 -282 -22 -350 -9 -33 6 -77 14 -98 17 -20 3 -40 9
-43 14 -3 5 -12 9 -21 9 -14 0 -38 9 -113 43 -87 40 -168 97 -268 191 -59 56
-90 74 -169 97 -18 5 -48 13 -65 18 -18 5 -43 13 -55 16 -15 5 -24 3 -27 -6
-29 -101 -40 -137 -47 -151 -16 -31 -10 -77 13 -105 28 -35 175 -181 208 -208
61 -48 99 -75 109 -75 6 0 11 -4 11 -9 0 -8 198 -111 214 -111 5 0 22 -6 39
-14 82 -36 198 -62 344 -77 165 -17 354 6 528 63 101 34 223 90 271 125 17 13
34 23 38 23 37 0 293 244 352 336 10 16 25 35 32 43 7 7 9 18 5 22 -8 8 -40 1
-149 -32 -55 -16 -91 -12 -97 14 -2 12 -13 59 -23 105 -10 45 -21 82 -25 82
-3 0 -19 -19 -34 -42z"/>
</g>
</svg>
