<?xml version="1.0" standalone="no"?>
<!DOCTYPE svg PUBLIC "-//W3C//DTD SVG 20010904//EN"
 "http://www.w3.org/TR/2001/REC-SVG-20010904/DTD/svg10.dtd">
<svg version="1.0" xmlns="http://www.w3.org/2000/svg"
 width="100%" height="100%" viewBox="0 0 141.000000 151.000000"
 preserveAspectRatio="xMidYMid meet">
<metadata>
Created by potrace 1.16, written by Peter Selinger 2001-2019
</metadata>
<g transform="translate(0.000000,151.000000) scale(0.100000,-0.100000)"
fill="#000000" stroke="none">
<path d="M538 1478 c-25 -9 -28 -14 -28 -59 0 -40 -5 -55 -25 -74 -28 -29 -30
-29 -85 -10 -57 20 -56 21 -86 -25 l-27 -40 27 -40 c45 -68 33 -106 -41 -131
l-48 -16 -3 -51 c-3 -49 -1 -53 25 -62 54 -19 78 -36 87 -63 8 -22 5 -34 -23
-72 l-33 -46 27 -41 c23 -35 30 -39 53 -34 114 27 134 16 140 -72 4 -57 6 -61
35 -71 49 -18 64 -13 97 29 24 31 39 40 62 40 28 0 39 -8 85 -68 17 -21 20
-22 63 -9 l45 13 5 55 c8 88 33 104 123 77 39 -12 41 -11 68 22 35 42 35 47 4
90 -29 39 -32 81 -9 101 9 8 35 21 58 29 40 15 41 17 44 67 l3 51 -38 12 c-46
15 -83 47 -83 72 0 11 14 39 30 63 l31 44 -27 41 c-22 33 -32 40 -48 35 -12
-4 -41 -9 -66 -12 -58 -7 -73 10 -80 86 -5 55 -5 56 -47 70 l-42 15 -45 -48
c-36 -39 -48 -47 -68 -41 -22 6 -78 61 -78 77 0 11 -49 9 -82 -4z m218 -231
c204 -53 237 -331 51 -429 -58 -31 -156 -31 -213 -1 -185 98 -155 375 46 429
58 16 57 16 116 1z"/>
<path d="M56 1118 c-14 -19 -16 -62 -16 -272 l0 -250 160 -161 160 -161 0
-137 0 -138 123 3 122 3 3 155 c2 85 0 171 -3 190 -5 29 -43 71 -208 238 -162
162 -207 202 -228 202 -40 0 -70 -29 -71 -68 -1 -28 9 -43 55 -90 32 -32 57
-61 57 -65 0 -34 -120 75 -139 126 -20 53 31 127 86 127 23 0 23 1 23 140 0
127 -2 142 -20 160 -28 28 -84 27 -104 -2z"/>
<path d="M1240 1120 c-18 -18 -20 -33 -20 -160 0 -139 0 -140 23 -140 55 0
106 -74 86 -127 -19 -51 -139 -160 -139 -126 0 4 25 33 57 65 46 47 56 62 55
90 -1 39 -31 68 -71 68 -21 0 -66 -40 -228 -202 -165 -167 -203 -209 -208
-238 -3 -19 -5 -105 -3 -190 l3 -155 123 -3 122 -3 0 138 0 137 160 161 160
161 0 250 c0 210 -2 253 -16 272 -20 29 -76 30 -104 2z"/>
</g>
</svg>
